#!OML:ASF H:\Punching\Project 1\Capture day 1\Session 1\female.ASF
:FULLY-SPECIFIED
:DEGREES
941
root -2.96414 15.8197 17.9466 -173.285 172.083 -181.983
lowerback -6.75037 -2.23522 3.7389
upperback -6.46536 -3.06829 2.6333
thorax -2.96764 -1.61399 0.508067
lowerneck -14.1812 2.60915 8.67928
upperneck 40.63 2.47112 -3.19213
head 17.5307 1.95982 -2.55497
rclavicle 3.34952e-014 2.38542e-015
rhumerus -42.2863 -3.76346 -71.8895
rradius 30.7322
rwrist 5.00694
rhand -11.4315 -5.70958
rfingers 7.12502
rthumb 14.6048 -35.1753
lclavicle 3.34952e-014 2.38542e-015
lhumerus -43.5554 15.1079 74.1186
lradius 25.2074
lwrist -30.5714
lhand 3.25572 10.3083
lfingers 7.12502
lthumb 28.7049 38.1224
rfemur -19.889 -2.43677 28.6616
rtibia 20.5133
rfoot -7.2009 -18.4564
rtoes 12.1501
lfemur -12.6696 1.30583 -16.596
ltibia 58.1268
lfoot -1.18785 7.62382
ltoes -5.72173
942
root -2.98488 15.8228 18.0462 -173.372 172.517 -182.073
lowerback -6.57924 -2.08084 3.88026
upperback -6.42387 -2.86258 2.57982
thorax -3.02567 -1.51819 0.388108
lowerneck -14.2255 2.58146 8.69166
upperneck 40.5222 2.41066 -3.17748
head 17.475 1.93493 -2.55909
rclavicle 1.17283e-014 -2.38542e-015
rhumerus -42.2161 -3.27975 -72.2034
rradius 31.1247
rwrist 4.63171
rhand -11.5311 -5.63715
rfingers 7.12502
rthumb 14.5088 -35.1098
lclavicle 1.17283e-014 -2.38542e-015
lhumerus -43.6365 15.0441 73.9017
lradius 25.2729
lwrist -30.6362
lhand 3.21643 10.2907
lfingers 7.12502
lthumb 28.6674 38.1112
rfemur -19.2282 -2.41105 28.9136
rtibia 20.1728
rfoot -7.38904 -18.0517
rtoes 11.998
lfemur -13.9255 1.81904 -16.4598
ltibia 59.5523
lfoot -1.83857 8.59665
ltoes -4.8422
943
root -3.00434 15.8261 18.1453 -173.433 173.011 -182.135
lowerback -6.44658 -1.90993 4.00444
upperback -6.38001 -2.63642 2.51136
thorax -3.05786 -1.41163 0.260303
lowerneck -14.2612 2.55578 8.71189
upperneck 40.4191 2.34836 -3.15524
head 17.4202 1.91166 -2.56157
rclavicle -2.66371e-014 1.90833e-014
rhumerus -42.1206 -2.84491 -72.4962
rradius 31.4865
rwrist 4.32921
rhand -11.612 -5.64213
rfingers 7.12502
rthumb 14.4309 -35.1204
lclavicle -2.66371e-014 1.90833e-014
lhumerus -43.7151 14.9489 73.7119
lradius 25.4023
lwrist -30.4919
lhand 3.00495 10.3048
lfingers 7.12502
lthumb 28.4653 38.1593
rfemur -18.6291 -2.35734 29.1308
rtibia 19.9153
rfoot -7.62538 -17.6448
rtoes 11.8562
lfemur -15.1444 2.28437 -16.3829
ltibia 60.7332
lfoot -2.44601 9.46088
ltoes -4.05849
944
root -3.02276 15.8268 18.2441 -173.471 173.547 -182.182
lowerback -6.3553 -1.72763 4.11618
upperback -6.33244 -2.3972 2.43291
thorax -3.06122 -1.29794 0.12712
lowerneck -14.2911 2.53296 8.74053
upperneck 40.3168 2.28611 -3.12784
head 17.3648 1.89039 -2.56321
rclavicle 2.85256e-014 -2.8625e-014
rhumerus -41.9979 -2.46218 -72.765
rradius 31.8163
rwrist 4.09294
rhand -11.6633 -5.69796
rfingers 7.12502
rthumb 14.3814 -35.1798
lclavicle 2.85256e-014 -2.8625e-014
lhumerus -43.79 14.8189 73.5506
lradius 25.5818
lwrist -30.1493
lhand 2.61214 10.3443
lfingers 7.12502
lthumb 28.0899 38.2609
rfemur -18.0923 -2.29558 29.3288
rtibia 19.731
rfoot -7.88098 -17.2289
rtoes 11.6527
lfemur -16.3347 2.68018 -16.3462
ltibia 61.6922
lfoot -3.03042 10.1795
ltoes -3.40073
945
root -3.0406 15.8264 18.3429 -173.486 174.116 -182.222
lowerback -6.30806 -1.53729 4.22267
upperback -6.28603 -2.14964 2.34749
thorax -3.03958 -1.17969 -0.0119748
lowerneck -14.306 2.51109 8.77534
upperneck 40.2207 2.22178 -3.093
head 17.3093 1.87041 -2.56309
rclavicle 7.55382e-015 -1.59028e-015
rhumerus -41.8518 -2.13254 -73.0113
rradius 32.11
rwrist 3.91376
rhand -11.6949 -5.78617
rfingers 7.12502
rthumb 14.351 -35.2701
lclavicle 7.55382e-015 -1.59028e-015
lhumerus -43.8725 14.6535 73.4136
lradius 25.8141
lwrist -29.6103
lhand 2.06893 10.4218
lfingers 7.12502
lthumb 27.5705 38.4224
rfemur -17.609 -2.22901 29.5165
rtibia 19.6059
rfoot -8.15714 -16.8029
rtoes 11.4124
lfemur -17.4997 2.99531 -16.3313
ltibia 62.4329
lfoot -3.59414 10.7376
ltoes -2.82547
